<mxfile host="app.diagrams.net" modified="2022-11-29T20:17:28.591Z" agent="5.0 (Windows NT 10.0; Win64; x64) AppleWebKit/537.36 (KHTML, like Gecko) Chrome/107.0.0.0 Safari/537.36" version="20.6.0" etag="NBwuqEnkFu604E7nH6G_" type="github">
  <diagram id="KPAEnPyNMdsMgGjbT3I9" name="Page-1">
    <mxGraphModel dx="1576" dy="747" grid="1" gridSize="10" guides="1" tooltips="1" connect="1" arrows="1" fold="1" page="1" pageScale="1" pageWidth="827" pageHeight="1169" math="0" shadow="0">
      <root>
        <mxCell id="0" />
        <mxCell id="1" parent="0" />
        <mxCell id="8Yq0o8m1YfdsQqYRWVNm-22" value="Alternative" style="shape=umlFrame;tabWidth=110;tabHeight=30;tabPosition=left;html=1;boundedLbl=1;labelInHeader=1;width=87;height=30;fillColor=#CCFFFF;fontColor=#333333;strokeColor=#666666;sketch=0;" vertex="1" parent="1">
          <mxGeometry x="10" y="120" width="461" height="250" as="geometry" />
        </mxCell>
        <mxCell id="8Yq0o8m1YfdsQqYRWVNm-23" value="If you have &#xa;an account" style="text" vertex="1" parent="8Yq0o8m1YfdsQqYRWVNm-22">
          <mxGeometry width="100" height="20" relative="1" as="geometry">
            <mxPoint x="20" y="40" as="offset" />
          </mxGeometry>
        </mxCell>
        <mxCell id="8Yq0o8m1YfdsQqYRWVNm-24" value="else" style="line;strokeWidth=1;dashed=1;labelPosition=center;verticalLabelPosition=bottom;align=left;verticalAlign=top;spacingLeft=20;spacingTop=15;" vertex="1" parent="8Yq0o8m1YfdsQqYRWVNm-22">
          <mxGeometry y="125" width="460.99999999999994" height="10" as="geometry" />
        </mxCell>
        <mxCell id="8Yq0o8m1YfdsQqYRWVNm-33" value="²²²²²" style="html=1;verticalAlign=bottom;labelBackgroundColor=none;endArrow=block;endFill=1;rounded=0;startSize=6;endSize=6;sourcePerimeterSpacing=0;targetPerimeterSpacing=0;" edge="1" parent="8Yq0o8m1YfdsQqYRWVNm-22" source="8Yq0o8m1YfdsQqYRWVNm-44">
          <mxGeometry width="160" relative="1" as="geometry">
            <mxPoint x="110" y="163" as="sourcePoint" />
            <mxPoint x="235" y="163" as="targetPoint" />
            <Array as="points">
              <mxPoint x="160" y="163" />
              <mxPoint x="190" y="163" />
            </Array>
          </mxGeometry>
        </mxCell>
        <mxCell id="8Yq0o8m1YfdsQqYRWVNm-34" value="Register" style="edgeLabel;html=1;align=center;verticalAlign=middle;resizable=0;points=[];" vertex="1" connectable="0" parent="8Yq0o8m1YfdsQqYRWVNm-33">
          <mxGeometry x="0.015" relative="1" as="geometry">
            <mxPoint x="-6" y="-10" as="offset" />
          </mxGeometry>
        </mxCell>
        <mxCell id="8Yq0o8m1YfdsQqYRWVNm-1" value="User" style="shape=umlActor;verticalLabelPosition=bottom;verticalAlign=top;html=1;" vertex="1" parent="1">
          <mxGeometry x="105" y="20" width="30" height="60" as="geometry" />
        </mxCell>
        <mxCell id="8Yq0o8m1YfdsQqYRWVNm-8" value="Profil" style="shape=umlLifeline;perimeter=lifelinePerimeter;whiteSpace=wrap;html=1;container=1;collapsible=0;recursiveResize=0;outlineConnect=0;fillColor=#e1d5e7;strokeColor=#9673a6;" vertex="1" parent="1">
          <mxGeometry x="890" y="40" width="100" height="1120" as="geometry" />
        </mxCell>
        <mxCell id="8Yq0o8m1YfdsQqYRWVNm-89" value="" style="html=1;points=[];perimeter=orthogonalPerimeter;fillColor=#e1d5e7;strokeColor=#9673a6;" vertex="1" parent="8Yq0o8m1YfdsQqYRWVNm-8">
          <mxGeometry x="45" y="553" width="10" height="100" as="geometry" />
        </mxCell>
        <mxCell id="8Yq0o8m1YfdsQqYRWVNm-134" value="" style="html=1;points=[];perimeter=orthogonalPerimeter;fillColor=#e1d5e7;strokeColor=#9673a6;" vertex="1" parent="8Yq0o8m1YfdsQqYRWVNm-8">
          <mxGeometry x="45" y="410" width="10" height="100" as="geometry" />
        </mxCell>
        <mxCell id="8Yq0o8m1YfdsQqYRWVNm-10" value="Data Base" style="shape=umlLifeline;perimeter=lifelinePerimeter;whiteSpace=wrap;html=1;container=1;collapsible=0;recursiveResize=0;outlineConnect=0;fillColor=#DAE8FC;" vertex="1" parent="1">
          <mxGeometry x="346" y="40" width="100" height="1120" as="geometry" />
        </mxCell>
        <mxCell id="8Yq0o8m1YfdsQqYRWVNm-11" value="" style="html=1;points=[];perimeter=orthogonalPerimeter;fillColor=#dae8fc;strokeColor=#6c8ebf;" vertex="1" parent="8Yq0o8m1YfdsQqYRWVNm-10">
          <mxGeometry x="45" y="121" width="10" height="40" as="geometry" />
        </mxCell>
        <mxCell id="8Yq0o8m1YfdsQqYRWVNm-40" value="" style="html=1;points=[];perimeter=orthogonalPerimeter;fillColor=#dae8fc;strokeColor=#6c8ebf;" vertex="1" parent="8Yq0o8m1YfdsQqYRWVNm-10">
          <mxGeometry x="45" y="250" width="10" height="40" as="geometry" />
        </mxCell>
        <mxCell id="8Yq0o8m1YfdsQqYRWVNm-104" value="" style="html=1;points=[];perimeter=orthogonalPerimeter;fillColor=#dae8fc;strokeColor=#6c8ebf;" vertex="1" parent="8Yq0o8m1YfdsQqYRWVNm-10">
          <mxGeometry x="45" y="460" width="10" height="58" as="geometry" />
        </mxCell>
        <mxCell id="8Yq0o8m1YfdsQqYRWVNm-111" value="" style="html=1;points=[];perimeter=orthogonalPerimeter;fillColor=#dae8fc;strokeColor=#6c8ebf;" vertex="1" parent="8Yq0o8m1YfdsQqYRWVNm-10">
          <mxGeometry x="45" y="623" width="10" height="30" as="geometry" />
        </mxCell>
        <mxCell id="8Yq0o8m1YfdsQqYRWVNm-128" value="" style="html=1;points=[];perimeter=orthogonalPerimeter;fillColor=#dae8fc;strokeColor=#6c8ebf;" vertex="1" parent="8Yq0o8m1YfdsQqYRWVNm-10">
          <mxGeometry x="45" y="859" width="10" height="30" as="geometry" />
        </mxCell>
        <mxCell id="8Yq0o8m1YfdsQqYRWVNm-14" value="" style="endArrow=none;dashed=1;html=1;rounded=0;targetPerimeterSpacing=0;endSize=6;startSize=6;startArrow=none;" edge="1" parent="1" source="8Yq0o8m1YfdsQqYRWVNm-44">
          <mxGeometry width="50" height="50" relative="1" as="geometry">
            <mxPoint x="120" y="720" as="sourcePoint" />
            <mxPoint x="120" y="100" as="targetPoint" />
          </mxGeometry>
        </mxCell>
        <mxCell id="8Yq0o8m1YfdsQqYRWVNm-15" value="Login / Register" style="shape=umlLifeline;perimeter=lifelinePerimeter;whiteSpace=wrap;html=1;container=1;collapsible=0;recursiveResize=0;outlineConnect=0;fillColor=#DAE8FC;strokeColor=#000000;" vertex="1" parent="1">
          <mxGeometry x="200" y="40" width="100" height="1120" as="geometry" />
        </mxCell>
        <mxCell id="8Yq0o8m1YfdsQqYRWVNm-19" value="" style="html=1;points=[];perimeter=orthogonalPerimeter;fillColor=#DAE8FC;strokeColor=#6c8ebf;" vertex="1" parent="8Yq0o8m1YfdsQqYRWVNm-15">
          <mxGeometry x="45" y="100" width="10" height="90" as="geometry" />
        </mxCell>
        <mxCell id="8Yq0o8m1YfdsQqYRWVNm-39" value="" style="html=1;points=[];perimeter=orthogonalPerimeter;fillColor=#DAE8FC;strokeColor=#6c8ebf;" vertex="1" parent="8Yq0o8m1YfdsQqYRWVNm-15">
          <mxGeometry x="45" y="230" width="10" height="90" as="geometry" />
        </mxCell>
        <mxCell id="8Yq0o8m1YfdsQqYRWVNm-17" value="Generate Path" style="shape=umlLifeline;perimeter=lifelinePerimeter;whiteSpace=wrap;html=1;container=1;collapsible=0;recursiveResize=0;outlineConnect=0;fillColor=#d5e8d4;strokeColor=#82b366;" vertex="1" parent="1">
          <mxGeometry x="650" y="40" width="100" height="1120" as="geometry" />
        </mxCell>
        <mxCell id="8Yq0o8m1YfdsQqYRWVNm-18" value="" style="html=1;points=[];perimeter=orthogonalPerimeter;fillColor=#d5e8d4;strokeColor=#82b366;" vertex="1" parent="8Yq0o8m1YfdsQqYRWVNm-17">
          <mxGeometry x="45" y="704" width="10" height="149" as="geometry" />
        </mxCell>
        <mxCell id="8Yq0o8m1YfdsQqYRWVNm-20" value="²²²²²" style="html=1;verticalAlign=bottom;labelBackgroundColor=none;endArrow=block;endFill=1;rounded=0;startSize=6;endSize=6;sourcePerimeterSpacing=0;targetPerimeterSpacing=0;" edge="1" parent="1" source="8Yq0o8m1YfdsQqYRWVNm-44" target="8Yq0o8m1YfdsQqYRWVNm-19">
          <mxGeometry width="160" relative="1" as="geometry">
            <mxPoint x="120" y="158" as="sourcePoint" />
            <mxPoint x="249.5" y="158" as="targetPoint" />
            <Array as="points">
              <mxPoint x="170" y="158" />
            </Array>
          </mxGeometry>
        </mxCell>
        <mxCell id="8Yq0o8m1YfdsQqYRWVNm-21" value="Login&amp;nbsp;" style="edgeLabel;html=1;align=center;verticalAlign=middle;resizable=0;points=[];" vertex="1" connectable="0" parent="8Yq0o8m1YfdsQqYRWVNm-20">
          <mxGeometry x="0.015" relative="1" as="geometry">
            <mxPoint x="-6" y="-10" as="offset" />
          </mxGeometry>
        </mxCell>
        <mxCell id="8Yq0o8m1YfdsQqYRWVNm-25" value="" style="endArrow=open;startArrow=none;endFill=0;startFill=0;endSize=8;html=1;verticalAlign=bottom;dashed=1;labelBackgroundColor=none;rounded=0;sourcePerimeterSpacing=0;targetPerimeterSpacing=0;" edge="1" parent="1" source="8Yq0o8m1YfdsQqYRWVNm-19" target="8Yq0o8m1YfdsQqYRWVNm-11">
          <mxGeometry width="160" relative="1" as="geometry">
            <mxPoint x="255" y="173" as="sourcePoint" />
            <mxPoint x="391" y="173" as="targetPoint" />
            <Array as="points">
              <mxPoint x="290" y="170" />
            </Array>
          </mxGeometry>
        </mxCell>
        <mxCell id="8Yq0o8m1YfdsQqYRWVNm-26" value="Check login information" style="edgeLabel;html=1;align=center;verticalAlign=middle;resizable=0;points=[];" vertex="1" connectable="0" parent="8Yq0o8m1YfdsQqYRWVNm-25">
          <mxGeometry x="0.1647" y="-2" relative="1" as="geometry">
            <mxPoint x="-15" y="-11" as="offset" />
          </mxGeometry>
        </mxCell>
        <mxCell id="8Yq0o8m1YfdsQqYRWVNm-27" value="" style="endArrow=none;startArrow=open;endFill=0;startFill=0;endSize=8;html=1;verticalAlign=bottom;dashed=1;labelBackgroundColor=none;rounded=0;sourcePerimeterSpacing=0;targetPerimeterSpacing=0;entryX=-0.014;entryY=0.695;entryDx=0;entryDy=0;entryPerimeter=0;" edge="1" parent="1">
          <mxGeometry width="160" relative="1" as="geometry">
            <mxPoint x="255" y="193.79999999999995" as="sourcePoint" />
            <mxPoint x="390.8600000000001" y="193.79999999999995" as="targetPoint" />
          </mxGeometry>
        </mxCell>
        <mxCell id="8Yq0o8m1YfdsQqYRWVNm-28" value="return status" style="edgeLabel;html=1;align=center;verticalAlign=middle;resizable=0;points=[];" vertex="1" connectable="0" parent="8Yq0o8m1YfdsQqYRWVNm-27">
          <mxGeometry x="0.311" y="-1" relative="1" as="geometry">
            <mxPoint x="-24" y="-9" as="offset" />
          </mxGeometry>
        </mxCell>
        <mxCell id="8Yq0o8m1YfdsQqYRWVNm-35" value="" style="endArrow=open;startArrow=none;endFill=0;startFill=0;endSize=8;html=1;verticalAlign=bottom;dashed=1;labelBackgroundColor=none;rounded=0;sourcePerimeterSpacing=0;targetPerimeterSpacing=0;" edge="1" parent="1" source="8Yq0o8m1YfdsQqYRWVNm-39" target="8Yq0o8m1YfdsQqYRWVNm-40">
          <mxGeometry width="160" relative="1" as="geometry">
            <mxPoint x="260" y="300" as="sourcePoint" />
            <mxPoint x="396" y="300" as="targetPoint" />
            <Array as="points">
              <mxPoint x="320" y="300" />
            </Array>
          </mxGeometry>
        </mxCell>
        <mxCell id="8Yq0o8m1YfdsQqYRWVNm-36" value="Save information" style="edgeLabel;html=1;align=center;verticalAlign=middle;resizable=0;points=[];" vertex="1" connectable="0" parent="8Yq0o8m1YfdsQqYRWVNm-35">
          <mxGeometry x="0.1647" y="-2" relative="1" as="geometry">
            <mxPoint x="-15" y="-11" as="offset" />
          </mxGeometry>
        </mxCell>
        <mxCell id="8Yq0o8m1YfdsQqYRWVNm-37" value="" style="endArrow=none;startArrow=open;endFill=0;startFill=0;endSize=8;html=1;verticalAlign=bottom;dashed=1;labelBackgroundColor=none;rounded=0;sourcePerimeterSpacing=0;targetPerimeterSpacing=0;" edge="1" parent="1" source="8Yq0o8m1YfdsQqYRWVNm-39" target="8Yq0o8m1YfdsQqYRWVNm-40">
          <mxGeometry width="160" relative="1" as="geometry">
            <mxPoint x="260" y="319.99999999999994" as="sourcePoint" />
            <mxPoint x="395.8600000000001" y="319.99999999999994" as="targetPoint" />
            <Array as="points">
              <mxPoint x="310" y="320" />
            </Array>
          </mxGeometry>
        </mxCell>
        <mxCell id="8Yq0o8m1YfdsQqYRWVNm-38" value="return status" style="edgeLabel;html=1;align=center;verticalAlign=middle;resizable=0;points=[];" vertex="1" connectable="0" parent="8Yq0o8m1YfdsQqYRWVNm-37">
          <mxGeometry x="0.311" y="-1" relative="1" as="geometry">
            <mxPoint x="-24" y="-10" as="offset" />
          </mxGeometry>
        </mxCell>
        <mxCell id="8Yq0o8m1YfdsQqYRWVNm-41" value="History" style="shape=umlLifeline;perimeter=lifelinePerimeter;whiteSpace=wrap;html=1;container=1;collapsible=0;recursiveResize=0;outlineConnect=0;fillColor=#f8cecc;strokeColor=#b85450;" vertex="1" parent="1">
          <mxGeometry x="770" y="40" width="100" height="1120" as="geometry" />
        </mxCell>
        <mxCell id="8Yq0o8m1YfdsQqYRWVNm-42" value="" style="html=1;points=[];perimeter=orthogonalPerimeter;fillColor=#f8cecc;strokeColor=#b85450;" vertex="1" parent="8Yq0o8m1YfdsQqYRWVNm-41">
          <mxGeometry x="45" y="350" width="10" height="130" as="geometry" />
        </mxCell>
        <mxCell id="8Yq0o8m1YfdsQqYRWVNm-124" value="" style="html=1;points=[];perimeter=orthogonalPerimeter;fillColor=#f8cecc;strokeColor=#b85450;" vertex="1" parent="8Yq0o8m1YfdsQqYRWVNm-41">
          <mxGeometry x="45" y="813" width="10" height="100" as="geometry" />
        </mxCell>
        <mxCell id="8Yq0o8m1YfdsQqYRWVNm-45" value="" style="endArrow=none;dashed=1;html=1;rounded=0;sourcePerimeterSpacing=0;endSize=6;startSize=6;" edge="1" parent="1" target="8Yq0o8m1YfdsQqYRWVNm-44">
          <mxGeometry width="50" height="50" relative="1" as="geometry">
            <mxPoint x="120" y="1160" as="sourcePoint" />
            <mxPoint x="120" y="100" as="targetPoint" />
          </mxGeometry>
        </mxCell>
        <mxCell id="8Yq0o8m1YfdsQqYRWVNm-44" value="" style="html=1;points=[];perimeter=orthogonalPerimeter;fillColor=#FFF2CC;strokeColor=#d6b656;" vertex="1" parent="1">
          <mxGeometry x="115" y="110" width="10" height="1020" as="geometry" />
        </mxCell>
        <mxCell id="8Yq0o8m1YfdsQqYRWVNm-29" value="" style="endArrow=none;startArrow=open;endFill=0;startFill=0;endSize=8;html=1;verticalAlign=bottom;dashed=1;labelBackgroundColor=none;rounded=0;sourcePerimeterSpacing=0;targetPerimeterSpacing=0;" edge="1" parent="1" source="8Yq0o8m1YfdsQqYRWVNm-44" target="8Yq0o8m1YfdsQqYRWVNm-19">
          <mxGeometry width="160" relative="1" as="geometry">
            <mxPoint x="120" y="204" as="sourcePoint" />
            <mxPoint x="235.86000000000013" y="203.79999999999995" as="targetPoint" />
            <Array as="points">
              <mxPoint x="190" y="210" />
            </Array>
          </mxGeometry>
        </mxCell>
        <mxCell id="8Yq0o8m1YfdsQqYRWVNm-30" value="return status" style="edgeLabel;html=1;align=center;verticalAlign=middle;resizable=0;points=[];" vertex="1" connectable="0" parent="8Yq0o8m1YfdsQqYRWVNm-29">
          <mxGeometry x="0.311" y="-1" relative="1" as="geometry">
            <mxPoint x="-24" y="-10" as="offset" />
          </mxGeometry>
        </mxCell>
        <mxCell id="8Yq0o8m1YfdsQqYRWVNm-31" value="" style="endArrow=none;startArrow=open;endFill=0;startFill=0;endSize=8;html=1;verticalAlign=bottom;dashed=1;labelBackgroundColor=none;rounded=0;sourcePerimeterSpacing=0;targetPerimeterSpacing=0;" edge="1" parent="1" source="8Yq0o8m1YfdsQqYRWVNm-44" target="8Yq0o8m1YfdsQqYRWVNm-39">
          <mxGeometry width="160" relative="1" as="geometry">
            <mxPoint x="120" y="340" as="sourcePoint" />
            <mxPoint x="245" y="330" as="targetPoint" />
            <Array as="points">
              <mxPoint x="200" y="340" />
            </Array>
          </mxGeometry>
        </mxCell>
        <mxCell id="8Yq0o8m1YfdsQqYRWVNm-32" value="return status" style="edgeLabel;html=1;align=center;verticalAlign=middle;resizable=0;points=[];" vertex="1" connectable="0" parent="8Yq0o8m1YfdsQqYRWVNm-31">
          <mxGeometry x="0.311" y="-1" relative="1" as="geometry">
            <mxPoint x="-24" y="-10" as="offset" />
          </mxGeometry>
        </mxCell>
        <mxCell id="8Yq0o8m1YfdsQqYRWVNm-43" value="" style="html=1;verticalAlign=bottom;labelBackgroundColor=none;endArrow=block;endFill=1;rounded=0;startSize=6;endSize=6;sourcePerimeterSpacing=0;targetPerimeterSpacing=0;" edge="1" parent="1" target="8Yq0o8m1YfdsQqYRWVNm-53">
          <mxGeometry width="160" relative="1" as="geometry">
            <mxPoint x="125" y="744" as="sourcePoint" />
            <mxPoint x="545" y="744" as="targetPoint" />
            <Array as="points">
              <mxPoint x="370" y="744" />
            </Array>
          </mxGeometry>
        </mxCell>
        <mxCell id="8Yq0o8m1YfdsQqYRWVNm-46" value="Choose category, select option" style="edgeLabel;html=1;align=center;verticalAlign=middle;resizable=0;points=[];" vertex="1" connectable="0" parent="8Yq0o8m1YfdsQqYRWVNm-43">
          <mxGeometry x="-0.5242" relative="1" as="geometry">
            <mxPoint x="98" y="-10" as="offset" />
          </mxGeometry>
        </mxCell>
        <mxCell id="8Yq0o8m1YfdsQqYRWVNm-47" value="" style="html=1;verticalAlign=bottom;labelBackgroundColor=none;endArrow=none;endFill=0;dashed=1;rounded=0;startSize=6;endSize=6;sourcePerimeterSpacing=0;targetPerimeterSpacing=0;startArrow=open;startFill=0;" edge="1" parent="1" target="8Yq0o8m1YfdsQqYRWVNm-18">
          <mxGeometry width="160" relative="1" as="geometry">
            <mxPoint x="555" y="784" as="sourcePoint" />
            <mxPoint x="520" y="783.58" as="targetPoint" />
            <Array as="points">
              <mxPoint x="620" y="784" />
            </Array>
          </mxGeometry>
        </mxCell>
        <mxCell id="8Yq0o8m1YfdsQqYRWVNm-48" value="Return a selection of paths" style="edgeLabel;html=1;align=center;verticalAlign=middle;resizable=0;points=[];" vertex="1" connectable="0" parent="8Yq0o8m1YfdsQqYRWVNm-47">
          <mxGeometry x="0.2264" relative="1" as="geometry">
            <mxPoint x="-15" y="-10" as="offset" />
          </mxGeometry>
        </mxCell>
        <mxCell id="8Yq0o8m1YfdsQqYRWVNm-52" value="Interface" style="shape=umlLifeline;perimeter=lifelinePerimeter;whiteSpace=wrap;html=1;container=1;collapsible=0;recursiveResize=0;outlineConnect=0;fillColor=#ffe6cc;strokeColor=#d79b00;" vertex="1" parent="1">
          <mxGeometry x="500" y="40" width="100" height="1120" as="geometry" />
        </mxCell>
        <mxCell id="8Yq0o8m1YfdsQqYRWVNm-53" value="" style="html=1;points=[];perimeter=orthogonalPerimeter;fillColor=#ffe6cc;strokeColor=#d79b00;" vertex="1" parent="8Yq0o8m1YfdsQqYRWVNm-52">
          <mxGeometry x="45" y="686" width="10" height="147" as="geometry" />
        </mxCell>
        <mxCell id="8Yq0o8m1YfdsQqYRWVNm-62" value="" style="html=1;points=[];perimeter=orthogonalPerimeter;fillColor=#ffe6cc;strokeColor=#d79b00;" vertex="1" parent="8Yq0o8m1YfdsQqYRWVNm-52">
          <mxGeometry x="45" y="350" width="10" height="110" as="geometry" />
        </mxCell>
        <mxCell id="8Yq0o8m1YfdsQqYRWVNm-101" value="" style="html=1;points=[];perimeter=orthogonalPerimeter;fillColor=#ffe6cc;strokeColor=#d79b00;" vertex="1" parent="8Yq0o8m1YfdsQqYRWVNm-52">
          <mxGeometry x="45" y="533" width="10" height="90" as="geometry" />
        </mxCell>
        <mxCell id="8Yq0o8m1YfdsQqYRWVNm-121" value="" style="html=1;points=[];perimeter=orthogonalPerimeter;fillColor=#ffe6cc;strokeColor=#d79b00;" vertex="1" parent="8Yq0o8m1YfdsQqYRWVNm-52">
          <mxGeometry x="45" y="929" width="10" height="124" as="geometry" />
        </mxCell>
        <mxCell id="8Yq0o8m1YfdsQqYRWVNm-54" value="" style="html=1;verticalAlign=bottom;labelBackgroundColor=none;endArrow=open;endFill=0;dashed=1;rounded=0;startSize=6;endSize=6;sourcePerimeterSpacing=0;targetPerimeterSpacing=0;" edge="1" parent="1" target="8Yq0o8m1YfdsQqYRWVNm-18">
          <mxGeometry width="160" relative="1" as="geometry">
            <mxPoint x="555" y="754" as="sourcePoint" />
            <mxPoint x="690" y="674" as="targetPoint" />
            <Array as="points">
              <mxPoint x="630" y="754" />
            </Array>
          </mxGeometry>
        </mxCell>
        <mxCell id="8Yq0o8m1YfdsQqYRWVNm-55" value="Generate" style="edgeLabel;html=1;align=center;verticalAlign=middle;resizable=0;points=[];" vertex="1" connectable="0" parent="8Yq0o8m1YfdsQqYRWVNm-54">
          <mxGeometry x="-0.2416" y="1" relative="1" as="geometry">
            <mxPoint x="12" y="-8" as="offset" />
          </mxGeometry>
        </mxCell>
        <mxCell id="8Yq0o8m1YfdsQqYRWVNm-57" value="" style="html=1;verticalAlign=bottom;labelBackgroundColor=none;endArrow=none;endFill=0;dashed=1;rounded=0;startSize=6;endSize=6;sourcePerimeterSpacing=0;targetPerimeterSpacing=0;startArrow=open;startFill=0;" edge="1" parent="1" target="8Yq0o8m1YfdsQqYRWVNm-53">
          <mxGeometry width="160" relative="1" as="geometry">
            <mxPoint x="125" y="794" as="sourcePoint" />
            <mxPoint x="545" y="794" as="targetPoint" />
            <Array as="points">
              <mxPoint x="360" y="794" />
            </Array>
          </mxGeometry>
        </mxCell>
        <mxCell id="8Yq0o8m1YfdsQqYRWVNm-58" value="Return a selection of paths" style="edgeLabel;html=1;align=center;verticalAlign=middle;resizable=0;points=[];" vertex="1" connectable="0" parent="8Yq0o8m1YfdsQqYRWVNm-57">
          <mxGeometry x="0.2264" relative="1" as="geometry">
            <mxPoint x="-22" y="-9" as="offset" />
          </mxGeometry>
        </mxCell>
        <mxCell id="8Yq0o8m1YfdsQqYRWVNm-59" value="" style="html=1;verticalAlign=bottom;labelBackgroundColor=none;endArrow=block;endFill=1;rounded=0;startSize=6;endSize=6;sourcePerimeterSpacing=0;targetPerimeterSpacing=0;" edge="1" parent="1" target="8Yq0o8m1YfdsQqYRWVNm-53">
          <mxGeometry width="160" relative="1" as="geometry">
            <mxPoint x="125" y="844" as="sourcePoint" />
            <mxPoint x="545" y="844" as="targetPoint" />
            <Array as="points">
              <mxPoint x="330" y="844" />
            </Array>
          </mxGeometry>
        </mxCell>
        <mxCell id="8Yq0o8m1YfdsQqYRWVNm-60" value="Choose path" style="edgeLabel;html=1;align=center;verticalAlign=middle;resizable=0;points=[];" vertex="1" connectable="0" parent="8Yq0o8m1YfdsQqYRWVNm-59">
          <mxGeometry x="0.6536" y="-3" relative="1" as="geometry">
            <mxPoint x="-142" y="-12" as="offset" />
          </mxGeometry>
        </mxCell>
        <mxCell id="8Yq0o8m1YfdsQqYRWVNm-61" value="" style="html=1;verticalAlign=bottom;labelBackgroundColor=none;endArrow=block;endFill=1;rounded=0;startSize=6;endSize=6;sourcePerimeterSpacing=0;targetPerimeterSpacing=0;" edge="1" parent="1" source="8Yq0o8m1YfdsQqYRWVNm-44" target="8Yq0o8m1YfdsQqYRWVNm-62">
          <mxGeometry width="160" relative="1" as="geometry">
            <mxPoint x="125" y="424" as="sourcePoint" />
            <mxPoint x="295" y="434" as="targetPoint" />
            <Array as="points">
              <mxPoint x="390" y="400" />
            </Array>
          </mxGeometry>
        </mxCell>
        <mxCell id="8Yq0o8m1YfdsQqYRWVNm-63" value="Open menu" style="edgeLabel;html=1;align=center;verticalAlign=middle;resizable=0;points=[];" vertex="1" connectable="0" parent="8Yq0o8m1YfdsQqYRWVNm-61">
          <mxGeometry x="0.2706" y="-1" relative="1" as="geometry">
            <mxPoint x="-62" y="-11" as="offset" />
          </mxGeometry>
        </mxCell>
        <mxCell id="8Yq0o8m1YfdsQqYRWVNm-64" value="" style="html=1;verticalAlign=bottom;labelBackgroundColor=none;endArrow=block;endFill=1;rounded=0;startSize=6;endSize=6;sourcePerimeterSpacing=0;targetPerimeterSpacing=0;" edge="1" parent="1" source="8Yq0o8m1YfdsQqYRWVNm-62" target="8Yq0o8m1YfdsQqYRWVNm-42">
          <mxGeometry width="160" relative="1" as="geometry">
            <mxPoint x="410" y="284" as="sourcePoint" />
            <mxPoint x="570" y="284" as="targetPoint" />
            <Array as="points">
              <mxPoint x="640" y="410" />
            </Array>
          </mxGeometry>
        </mxCell>
        <mxCell id="8Yq0o8m1YfdsQqYRWVNm-65" value="See History" style="edgeLabel;html=1;align=center;verticalAlign=middle;resizable=0;points=[];" vertex="1" connectable="0" parent="8Yq0o8m1YfdsQqYRWVNm-64">
          <mxGeometry x="-0.2013" relative="1" as="geometry">
            <mxPoint y="-10" as="offset" />
          </mxGeometry>
        </mxCell>
        <mxCell id="8Yq0o8m1YfdsQqYRWVNm-80" value="" style="html=1;verticalAlign=bottom;labelBackgroundColor=none;endArrow=block;endFill=1;rounded=0;startSize=6;endSize=6;sourcePerimeterSpacing=0;targetPerimeterSpacing=0;" edge="1" parent="1" source="8Yq0o8m1YfdsQqYRWVNm-101" target="8Yq0o8m1YfdsQqYRWVNm-89">
          <mxGeometry width="160" relative="1" as="geometry">
            <mxPoint x="555" y="729" as="sourcePoint" />
            <mxPoint x="815" y="729" as="targetPoint" />
            <Array as="points">
              <mxPoint x="780" y="613" />
            </Array>
          </mxGeometry>
        </mxCell>
        <mxCell id="8Yq0o8m1YfdsQqYRWVNm-81" value="See Profile" style="edgeLabel;html=1;align=center;verticalAlign=middle;resizable=0;points=[];" vertex="1" connectable="0" parent="8Yq0o8m1YfdsQqYRWVNm-80">
          <mxGeometry x="-0.2013" relative="1" as="geometry">
            <mxPoint y="-10" as="offset" />
          </mxGeometry>
        </mxCell>
        <mxCell id="8Yq0o8m1YfdsQqYRWVNm-102" value="" style="html=1;verticalAlign=bottom;labelBackgroundColor=none;endArrow=block;endFill=1;rounded=0;startSize=6;endSize=6;sourcePerimeterSpacing=0;targetPerimeterSpacing=0;" edge="1" parent="1" source="8Yq0o8m1YfdsQqYRWVNm-62" target="8Yq0o8m1YfdsQqYRWVNm-42">
          <mxGeometry width="160" relative="1" as="geometry">
            <mxPoint x="555" y="488" as="sourcePoint" />
            <mxPoint x="815" y="488" as="targetPoint" />
            <Array as="points">
              <mxPoint x="710" y="480" />
            </Array>
          </mxGeometry>
        </mxCell>
        <mxCell id="8Yq0o8m1YfdsQqYRWVNm-103" value="Update" style="edgeLabel;html=1;align=center;verticalAlign=middle;resizable=0;points=[];" vertex="1" connectable="0" parent="8Yq0o8m1YfdsQqYRWVNm-102">
          <mxGeometry x="0.0295" relative="1" as="geometry">
            <mxPoint x="-39" y="-10" as="offset" />
          </mxGeometry>
        </mxCell>
        <mxCell id="8Yq0o8m1YfdsQqYRWVNm-105" value="" style="html=1;verticalAlign=bottom;labelBackgroundColor=none;endArrow=none;endFill=0;dashed=1;rounded=0;startSize=6;endSize=6;sourcePerimeterSpacing=0;targetPerimeterSpacing=0;startArrow=open;startFill=0;" edge="1" parent="1" source="8Yq0o8m1YfdsQqYRWVNm-104" target="8Yq0o8m1YfdsQqYRWVNm-42">
          <mxGeometry width="160" relative="1" as="geometry">
            <mxPoint x="470" y="638" as="sourcePoint" />
            <mxPoint x="815" y="518" as="targetPoint" />
            <Array as="points">
              <mxPoint x="630" y="510" />
            </Array>
          </mxGeometry>
        </mxCell>
        <mxCell id="8Yq0o8m1YfdsQqYRWVNm-106" value="Modify" style="edgeLabel;html=1;align=center;verticalAlign=middle;resizable=0;points=[];" vertex="1" connectable="0" parent="8Yq0o8m1YfdsQqYRWVNm-105">
          <mxGeometry x="-0.5414" y="-2" relative="1" as="geometry">
            <mxPoint x="153" y="-15" as="offset" />
          </mxGeometry>
        </mxCell>
        <mxCell id="8Yq0o8m1YfdsQqYRWVNm-107" value="" style="html=1;verticalAlign=bottom;labelBackgroundColor=none;endArrow=block;endFill=1;rounded=0;startSize=6;endSize=6;sourcePerimeterSpacing=0;targetPerimeterSpacing=0;" edge="1" parent="1" target="8Yq0o8m1YfdsQqYRWVNm-101">
          <mxGeometry width="160" relative="1" as="geometry">
            <mxPoint x="125" y="583" as="sourcePoint" />
            <mxPoint x="540" y="583" as="targetPoint" />
            <Array as="points">
              <mxPoint x="385" y="583" />
            </Array>
          </mxGeometry>
        </mxCell>
        <mxCell id="8Yq0o8m1YfdsQqYRWVNm-108" value="Open menu" style="edgeLabel;html=1;align=center;verticalAlign=middle;resizable=0;points=[];" vertex="1" connectable="0" parent="8Yq0o8m1YfdsQqYRWVNm-107">
          <mxGeometry x="0.2706" y="-1" relative="1" as="geometry">
            <mxPoint x="-62" y="-11" as="offset" />
          </mxGeometry>
        </mxCell>
        <mxCell id="8Yq0o8m1YfdsQqYRWVNm-109" value="" style="html=1;verticalAlign=bottom;labelBackgroundColor=none;endArrow=block;endFill=1;rounded=0;startSize=6;endSize=6;sourcePerimeterSpacing=0;targetPerimeterSpacing=0;" edge="1" parent="1" source="8Yq0o8m1YfdsQqYRWVNm-101" target="8Yq0o8m1YfdsQqYRWVNm-89">
          <mxGeometry width="160" relative="1" as="geometry">
            <mxPoint x="565" y="523" as="sourcePoint" />
            <mxPoint x="825" y="523" as="targetPoint" />
            <Array as="points">
              <mxPoint x="730" y="643" />
            </Array>
          </mxGeometry>
        </mxCell>
        <mxCell id="8Yq0o8m1YfdsQqYRWVNm-110" value="Update" style="edgeLabel;html=1;align=center;verticalAlign=middle;resizable=0;points=[];" vertex="1" connectable="0" parent="8Yq0o8m1YfdsQqYRWVNm-109">
          <mxGeometry x="0.0295" relative="1" as="geometry">
            <mxPoint x="-39" y="-10" as="offset" />
          </mxGeometry>
        </mxCell>
        <mxCell id="8Yq0o8m1YfdsQqYRWVNm-112" value="" style="html=1;verticalAlign=bottom;labelBackgroundColor=none;endArrow=none;endFill=0;dashed=1;rounded=0;startSize=6;endSize=6;sourcePerimeterSpacing=0;targetPerimeterSpacing=0;startArrow=open;startFill=0;" edge="1" parent="1" source="8Yq0o8m1YfdsQqYRWVNm-111" target="8Yq0o8m1YfdsQqYRWVNm-89">
          <mxGeometry width="160" relative="1" as="geometry">
            <mxPoint x="480" y="693" as="sourcePoint" />
            <mxPoint x="827" y="683" as="targetPoint" />
            <Array as="points">
              <mxPoint x="650" y="673" />
            </Array>
          </mxGeometry>
        </mxCell>
        <mxCell id="8Yq0o8m1YfdsQqYRWVNm-113" value="Modify" style="edgeLabel;html=1;align=center;verticalAlign=middle;resizable=0;points=[];" vertex="1" connectable="0" parent="8Yq0o8m1YfdsQqYRWVNm-112">
          <mxGeometry x="-0.5414" y="-2" relative="1" as="geometry">
            <mxPoint x="153" y="-15" as="offset" />
          </mxGeometry>
        </mxCell>
        <mxCell id="8Yq0o8m1YfdsQqYRWVNm-116" value="" style="html=1;verticalAlign=bottom;labelBackgroundColor=none;endArrow=none;endFill=0;dashed=1;rounded=0;startSize=6;endSize=6;sourcePerimeterSpacing=0;targetPerimeterSpacing=0;startArrow=open;startFill=0;" edge="1" parent="1" target="8Yq0o8m1YfdsQqYRWVNm-121">
          <mxGeometry width="160" relative="1" as="geometry">
            <mxPoint x="125" y="993" as="sourcePoint" />
            <mxPoint x="630" y="819" as="targetPoint" />
            <Array as="points">
              <mxPoint x="330" y="993" />
            </Array>
          </mxGeometry>
        </mxCell>
        <mxCell id="8Yq0o8m1YfdsQqYRWVNm-117" value="Ask for Navigation App" style="edgeLabel;html=1;align=center;verticalAlign=middle;resizable=0;points=[];" vertex="1" connectable="0" parent="8Yq0o8m1YfdsQqYRWVNm-116">
          <mxGeometry x="0.204" y="-3" relative="1" as="geometry">
            <mxPoint x="-48" y="-13" as="offset" />
          </mxGeometry>
        </mxCell>
        <mxCell id="8Yq0o8m1YfdsQqYRWVNm-118" value="" style="html=1;verticalAlign=bottom;labelBackgroundColor=none;endArrow=block;endFill=1;rounded=0;startSize=6;endSize=6;sourcePerimeterSpacing=0;targetPerimeterSpacing=0;" edge="1" parent="1" target="8Yq0o8m1YfdsQqYRWVNm-121">
          <mxGeometry width="160" relative="1" as="geometry">
            <mxPoint x="125" y="1033" as="sourcePoint" />
            <mxPoint x="630" y="819" as="targetPoint" />
            <Array as="points">
              <mxPoint x="320" y="1033" />
            </Array>
          </mxGeometry>
        </mxCell>
        <mxCell id="8Yq0o8m1YfdsQqYRWVNm-119" value="Choose Navigation App" style="edgeLabel;html=1;align=center;verticalAlign=middle;resizable=0;points=[];" vertex="1" connectable="0" parent="8Yq0o8m1YfdsQqYRWVNm-118">
          <mxGeometry x="0.1326" y="1" relative="1" as="geometry">
            <mxPoint x="-43" y="-9" as="offset" />
          </mxGeometry>
        </mxCell>
        <mxCell id="8Yq0o8m1YfdsQqYRWVNm-122" value="" style="html=1;verticalAlign=bottom;labelBackgroundColor=none;endArrow=open;endFill=0;dashed=1;rounded=0;startSize=6;endSize=6;sourcePerimeterSpacing=0;targetPerimeterSpacing=0;" edge="1" parent="1" source="8Yq0o8m1YfdsQqYRWVNm-53" target="8Yq0o8m1YfdsQqYRWVNm-18">
          <mxGeometry width="160" relative="1" as="geometry">
            <mxPoint x="470" y="763" as="sourcePoint" />
            <mxPoint x="630" y="763" as="targetPoint" />
            <Array as="points">
              <mxPoint x="620" y="863" />
            </Array>
          </mxGeometry>
        </mxCell>
        <mxCell id="8Yq0o8m1YfdsQqYRWVNm-123" value="Return path" style="edgeLabel;html=1;align=center;verticalAlign=middle;resizable=0;points=[];" vertex="1" connectable="0" parent="8Yq0o8m1YfdsQqYRWVNm-122">
          <mxGeometry x="0.0977" y="-1" relative="1" as="geometry">
            <mxPoint x="-12" y="-11" as="offset" />
          </mxGeometry>
        </mxCell>
        <mxCell id="8Yq0o8m1YfdsQqYRWVNm-120" value="" style="html=1;verticalAlign=bottom;labelBackgroundColor=none;endArrow=open;endFill=0;dashed=1;rounded=0;startSize=6;endSize=6;sourcePerimeterSpacing=0;targetPerimeterSpacing=0;" edge="1" parent="1" source="8Yq0o8m1YfdsQqYRWVNm-18" target="8Yq0o8m1YfdsQqYRWVNm-124">
          <mxGeometry width="160" relative="1" as="geometry">
            <mxPoint x="640" y="913" as="sourcePoint" />
            <mxPoint x="760" y="863" as="targetPoint" />
            <Array as="points">
              <mxPoint x="730" y="883" />
            </Array>
          </mxGeometry>
        </mxCell>
        <mxCell id="8Yq0o8m1YfdsQqYRWVNm-125" value="Add to history" style="edgeLabel;html=1;align=center;verticalAlign=middle;resizable=0;points=[];" vertex="1" connectable="0" parent="8Yq0o8m1YfdsQqYRWVNm-120">
          <mxGeometry x="-0.1484" y="-2" relative="1" as="geometry">
            <mxPoint y="-12" as="offset" />
          </mxGeometry>
        </mxCell>
        <mxCell id="8Yq0o8m1YfdsQqYRWVNm-126" value="" style="html=1;verticalAlign=bottom;labelBackgroundColor=none;endArrow=none;endFill=0;dashed=1;rounded=0;startSize=6;endSize=6;sourcePerimeterSpacing=0;targetPerimeterSpacing=0;startArrow=open;startFill=0;" edge="1" parent="1" source="8Yq0o8m1YfdsQqYRWVNm-128">
          <mxGeometry width="160" relative="1" as="geometry">
            <mxPoint x="456" y="915" as="sourcePoint" />
            <mxPoint x="815" y="915" as="targetPoint" />
            <Array as="points" />
          </mxGeometry>
        </mxCell>
        <mxCell id="8Yq0o8m1YfdsQqYRWVNm-127" value="Modify" style="edgeLabel;html=1;align=center;verticalAlign=middle;resizable=0;points=[];" vertex="1" connectable="0" parent="8Yq0o8m1YfdsQqYRWVNm-126">
          <mxGeometry x="-0.5414" y="-2" relative="1" as="geometry">
            <mxPoint x="153" y="-15" as="offset" />
          </mxGeometry>
        </mxCell>
        <mxCell id="8Yq0o8m1YfdsQqYRWVNm-129" value="" style="html=1;verticalAlign=bottom;labelBackgroundColor=none;endArrow=none;endFill=0;rounded=0;startSize=6;endSize=6;sourcePerimeterSpacing=0;targetPerimeterSpacing=0;startArrow=open;startFill=0;dashed=1;" edge="1" parent="1" target="8Yq0o8m1YfdsQqYRWVNm-121">
          <mxGeometry width="160" relative="1" as="geometry">
            <mxPoint x="125" y="1073" as="sourcePoint" />
            <mxPoint x="630" y="1123" as="targetPoint" />
            <Array as="points">
              <mxPoint x="340" y="1073" />
            </Array>
          </mxGeometry>
        </mxCell>
        <mxCell id="8Yq0o8m1YfdsQqYRWVNm-130" value="Open navigation app" style="edgeLabel;html=1;align=center;verticalAlign=middle;resizable=0;points=[];" vertex="1" connectable="0" parent="8Yq0o8m1YfdsQqYRWVNm-129">
          <mxGeometry x="0.2135" y="1" relative="1" as="geometry">
            <mxPoint x="-60" y="-9" as="offset" />
          </mxGeometry>
        </mxCell>
        <mxCell id="8Yq0o8m1YfdsQqYRWVNm-131" value="" style="html=1;verticalAlign=bottom;labelBackgroundColor=none;endArrow=block;endFill=1;rounded=0;startSize=6;endSize=6;sourcePerimeterSpacing=0;targetPerimeterSpacing=0;" edge="1" parent="1" source="8Yq0o8m1YfdsQqYRWVNm-62" target="8Yq0o8m1YfdsQqYRWVNm-42">
          <mxGeometry width="160" relative="1" as="geometry">
            <mxPoint x="470" y="550" as="sourcePoint" />
            <mxPoint x="630" y="550" as="targetPoint" />
          </mxGeometry>
        </mxCell>
        <mxCell id="8Yq0o8m1YfdsQqYRWVNm-132" value="Add favorite by choosing a path&amp;nbsp;" style="edgeLabel;html=1;align=center;verticalAlign=middle;resizable=0;points=[];" vertex="1" connectable="0" parent="8Yq0o8m1YfdsQqYRWVNm-131">
          <mxGeometry x="-0.2859" relative="1" as="geometry">
            <mxPoint x="22" y="-15" as="offset" />
          </mxGeometry>
        </mxCell>
        <mxCell id="8Yq0o8m1YfdsQqYRWVNm-133" value="" style="html=1;verticalAlign=bottom;labelBackgroundColor=none;endArrow=open;endFill=0;dashed=1;rounded=0;startSize=6;endSize=6;sourcePerimeterSpacing=0;targetPerimeterSpacing=0;" edge="1" parent="1" source="8Yq0o8m1YfdsQqYRWVNm-42" target="8Yq0o8m1YfdsQqYRWVNm-134">
          <mxGeometry width="160" relative="1" as="geometry">
            <mxPoint x="470" y="450" as="sourcePoint" />
            <mxPoint x="1000" y="480" as="targetPoint" />
            <Array as="points">
              <mxPoint x="880" y="460" />
            </Array>
          </mxGeometry>
        </mxCell>
        <mxCell id="8Yq0o8m1YfdsQqYRWVNm-135" value="Add to favourites" style="edgeLabel;html=1;align=center;verticalAlign=middle;resizable=0;points=[];" vertex="1" connectable="0" parent="8Yq0o8m1YfdsQqYRWVNm-133">
          <mxGeometry x="0.3425" y="-1" relative="1" as="geometry">
            <mxPoint x="-20" y="-10" as="offset" />
          </mxGeometry>
        </mxCell>
        <mxCell id="8Yq0o8m1YfdsQqYRWVNm-136" value="" style="html=1;verticalAlign=bottom;labelBackgroundColor=none;endArrow=none;endFill=0;dashed=1;rounded=0;startSize=6;endSize=6;sourcePerimeterSpacing=0;targetPerimeterSpacing=0;startArrow=open;startFill=0;" edge="1" parent="1" source="8Yq0o8m1YfdsQqYRWVNm-104" target="8Yq0o8m1YfdsQqYRWVNm-134">
          <mxGeometry width="160" relative="1" as="geometry">
            <mxPoint x="411" y="520" as="sourcePoint" />
            <mxPoint x="825" y="520" as="targetPoint" />
            <Array as="points">
              <mxPoint x="640" y="540" />
            </Array>
          </mxGeometry>
        </mxCell>
        <mxCell id="8Yq0o8m1YfdsQqYRWVNm-137" value="Modify" style="edgeLabel;html=1;align=center;verticalAlign=middle;resizable=0;points=[];" vertex="1" connectable="0" parent="8Yq0o8m1YfdsQqYRWVNm-136">
          <mxGeometry x="-0.5414" y="-2" relative="1" as="geometry">
            <mxPoint x="127" y="-13" as="offset" />
          </mxGeometry>
        </mxCell>
      </root>
    </mxGraphModel>
  </diagram>
</mxfile>
